<svg xmlns="http://www.w3.org/2000/svg" width="1400" height="700" viewBox="0 0 1400 700" role="img" aria-labelledby="title desc">
  <title id="title">Vantage timeline</title>
  <desc id="desc">Wireshark-style incident timeline with UTC events split by source capture and pivot explanation.</desc>
  <defs>
    <style>
      .title { font: 700 30px 'Segoe UI', Arial, sans-serif; fill: #e6edf3; }
      .sub { font: 500 18px 'Segoe UI', Arial, sans-serif; fill: #9fb3c8; }
      .ui { font: 500 14px 'Segoe UI', Arial, sans-serif; fill: #d8e2ec; }
      .mono { font: 600 14px 'Consolas', 'Courier New', monospace; fill: #d8e2ec; }
      .monoSmall { font: 600 12px 'Consolas', 'Courier New', monospace; fill: #d8e2ec; }
      .noteT { font: 600 15px 'Segoe UI', Arial, sans-serif; fill: #12263a; }
      .noteS { font: 500 13px 'Segoe UI', Arial, sans-serif; fill: #17334b; }
    </style>
  </defs>

  <rect width="1400" height="700" fill="#0d1117" rx="16"/>
  <text x="36" y="48" class="title">Incident Timeline (UTC)</text>
  <text x="36" y="78" class="sub">Chronological bridge from web activity to controller-side API operations.</text>

  <rect x="34" y="100" width="1332" height="560" rx="10" fill="#1f242d" stroke="#3a4451"/>
  <rect x="34" y="100" width="1332" height="30" fill="#2b313c"/>
  <text x="48" y="120" class="ui">Timeline board</text>

  <line x1="90" y1="300" x2="1310" y2="300" stroke="#3f4b5a" stroke-width="4"/>

  <text x="90" y="230" class="mono">web-server pcap</text>
  <circle cx="170" cy="300" r="10" fill="#2ea043"/>
  <text x="120" y="272" class="mono">09:38</text>
  <text x="95" y="340" class="monoSmall">ffuf scan starts</text>

  <circle cx="360" cy="300" r="10" fill="#58a6ff"/>
  <text x="312" y="272" class="mono">09:39:07</text>
  <text x="277" y="340" class="monoSmall">cloud.vantage.tech found</text>

  <circle cx="560" cy="300" r="10" fill="#e3b341"/>
  <text x="504" y="272" class="mono">09:40:07</text>
  <text x="457" y="340" class="monoSmall">successful login (HTTP 302)</text>

  <circle cx="730" cy="300" r="10" fill="#ff9f1c"/>
  <text x="674" y="272" class="mono">09:40:29</text>
  <text x="629" y="340" class="monoSmall">admin-openrc.sh downloaded</text>

  <text x="910" y="230" class="mono">controller pcap</text>
  <circle cx="970" cy="300" r="10" fill="#a371f7"/>
  <text x="914" y="272" class="mono">09:41:44</text>
  <text x="868" y="340" class="monoSmall">first direct API call</text>

  <circle cx="1110" cy="300" r="10" fill="#f778ba"/>
  <rect x="1032" y="220" width="160" height="54" rx="7" fill="#232b36" stroke="#4b5563"/>
  <text x="1046" y="244" class="monoSmall">09:45:23</text>
  <text x="1046" y="262" class="monoSmall">PII CSV downloaded</text>
  <line x1="1110" y1="274" x2="1110" y2="290" stroke="#f778ba" stroke-width="2"/>

  <circle cx="1240" cy="300" r="10" fill="#ff6b6b"/>
  <rect x="1148" y="342" width="188" height="54" rx="7" fill="#232b36" stroke="#4b5563"/>
  <text x="1162" y="366" class="monoSmall">09:48:02</text>
  <text x="1162" y="384" class="monoSmall">jellibean account created</text>
  <line x1="1240" y1="310" x2="1240" y2="342" stroke="#ff6b6b" stroke-width="2"/>

  <line x1="730" y1="242" x2="970" y2="242" stroke="#58d0ff" stroke-width="3" stroke-dasharray="7 6"/>
  <rect x="792" y="208" width="130" height="24" rx="6" fill="#d3f4ff"/>
  <text x="857" y="224" text-anchor="middle" style="font:600 12px 'Segoe UI'; fill:#12324e;">about 75 sec gap</text>

  <rect x="70" y="430" width="1260" height="200" rx="8" fill="#d3f4ff"/>
  <text x="88" y="456" class="noteT">Why this timeline matters</text>
  <text x="88" y="480" class="noteS">The OpenRC download is the handoff point.</text>
  <text x="88" y="502" class="noteS">Soon after, direct controller API requests start with OpenStack SDK user-agent values.</text>
  <text x="88" y="524" class="noteS">This timing sequence supports one coherent story:</text>
  <text x="88" y="546" class="noteS">web compromise first, then authenticated cloud API abuse, then data theft, then persistence.</text>
  <text x="88" y="568" class="noteS">Use this panel to answer "when did the pivot happen" and "what happened immediately before and after".</text>
</svg>