<svg xmlns="http://www.w3.org/2000/svg" width="1400" height="780" viewBox="0 0 1400 780" role="img" aria-labelledby="title desc">
  <title id="title">Wireshark Step 6 Time Correlation</title>
  <desc id="desc">Two aligned packet lists showing web-server and controller events correlated by UTC timestamps.</desc>
  <defs>
    <style>
      .title { font: 700 30px 'Segoe UI', Arial, sans-serif; fill: #e6edf3; }
      .sub { font: 500 18px 'Segoe UI', Arial, sans-serif; fill: #9fb3c8; }
      .ui { font: 500 14px 'Segoe UI', Arial, sans-serif; fill: #d8e2ec; }
      .mono { font: 600 14px 'Consolas', 'Courier New', monospace; fill: #d8e2ec; }
      .call { font: 600 15px 'Segoe UI', Arial, sans-serif; fill: #12263a; }
      .callSmall { font: 500 13px 'Segoe UI', Arial, sans-serif; fill: #17334b; }
    </style>
  </defs>

  <rect width="1400" height="780" fill="#0d1117" rx="16"/>
  <text x="36" y="48" class="title">Step 6 - Correlate Time Across Both PCAPs</text>
  <text x="36" y="78" class="sub">Align timestamps in UTC to prove the pivot from dashboard access to direct API usage.</text>

  <rect x="34" y="100" width="640" height="640" rx="10" fill="#1f242d" stroke="#3a4451"/>
  <rect x="34" y="100" width="640" height="30" fill="#2b313c"/>
  <text x="48" y="120" class="ui">web-server_2025-07-01.pcap</text>

  <rect x="50" y="150" width="608" height="570" rx="6" fill="#181d25" stroke="#4b5563"/>
  <rect x="58" y="158" width="592" height="24" fill="#243041"/>
  <text x="66" y="175" class="mono">Time (UTC)    Event</text>

  <rect x="58" y="190" width="592" height="32" fill="#243e60"/>
  <text x="66" y="211" class="mono">09:40:07      POST /dashboard/auth/login/   HTTP 302</text>

  <rect x="58" y="226" width="592" height="32" fill="#5b3d22"/>
  <text x="66" y="247" class="mono">09:40:29      GET /dashboard/project/api_access/openrc/</text>

  <text x="66" y="284" class="mono">Last meaningful web-server action: OpenRC download.</text>

  <rect x="726" y="100" width="640" height="640" rx="10" fill="#1f242d" stroke="#3a4451"/>
  <rect x="726" y="100" width="640" height="30" fill="#2b313c"/>
  <text x="740" y="120" class="ui">controller_2025-07-01.pcap</text>

  <rect x="742" y="150" width="608" height="570" rx="6" fill="#181d25" stroke="#4b5563"/>
  <rect x="750" y="158" width="592" height="24" fill="#243041"/>
  <text x="758" y="175" class="mono">Time (UTC)    Event</text>

  <rect x="750" y="226" width="592" height="32" fill="#31557f"/>
  <text x="758" y="247" class="mono">09:41:44      GET /identity   (first standalone API call)</text>
  <rect x="750" y="262" width="592" height="32" fill="#1f2937"/>
  <text x="758" y="283" class="mono">09:41:45      GET /identity/v3/services</text>
  <rect x="750" y="298" width="592" height="32" fill="#1f2937"/>
  <text x="758" y="319" class="mono">09:42:02      GET /identity/v3/users</text>

  <line x1="652" y1="242" x2="742" y2="242" stroke="#58d0ff" stroke-width="3" stroke-dasharray="7 6"/>
  <rect x="612" y="202" width="170" height="30" rx="6" fill="#d3f4ff"/>
  <text x="697" y="222" text-anchor="middle" style="font:600 13px 'Segoe UI'; fill:#12324e;">about 75 sec gap</text>

  <rect x="510" y="520" width="380" height="180" rx="8" fill="#d5ffe4"/>
  <text x="526" y="546" class="call">How this proves pivot</text>
  <text x="526" y="570" class="callSmall">1) OpenRC is downloaded at 09:40:29.</text>
  <text x="526" y="592" class="callSmall">2) First direct controller API call appears</text>
  <text x="526" y="614" class="callSmall">   at 09:41:44.</text>
  <text x="526" y="636" class="callSmall">3) Short delay matches operator setup time</text>
  <text x="526" y="658" class="callSmall">   for openstack CLI authentication.</text>
</svg>